<svg id="visual" viewBox="0 0 900 600" width="900" height="600" xmlns="http://www.w3.org/2000/svg" xmlns:xlink="http://www.w3.org/1999/xlink" version="1.1"><rect x="0" y="0" width="900" height="600" fill="#a9d6e5"></rect><path d="M435 0L394.8 9.2C354.7 18.3 274.3 36.7 233.2 54.8C192 73 190 91 211.2 109.2C232.3 127.3 276.7 145.7 289.8 163.8C303 182 285 200 279.3 218.2C273.7 236.3 280.3 254.7 265.8 272.8C251.3 291 215.7 309 215.5 327.2C215.3 345.3 250.7 363.7 284.3 381.8C318 400 350 418 344 436.2C338 454.3 294 472.7 251.8 490.8C209.7 509 169.3 527 169.8 545.2C170.3 563.3 211.7 581.7 232.3 590.8L253 600L0 600L0 590.8C0 581.7 0 563.3 0 545.2C0 527 0 509 0 490.8C0 472.7 0 454.3 0 436.2C0 418 0 400 0 381.8C0 363.7 0 345.3 0 327.2C0 309 0 291 0 272.8C0 254.7 0 236.3 0 218.2C0 200 0 182 0 163.8C0 145.7 0 127.3 0 109.2C0 91 0 73 0 54.8C0 36.7 0 18.3 0 9.2L0 0Z" fill="#468faf" stroke-linecap="round" stroke-linejoin="miter"></path></svg>